<svg width="61" height="50" fill="none" xmlns="http://www.w3.org/2000/svg"><path d="M23.757 7.773a11.727 11.727 0 0 0 6.804-2.425l-.029.021a13.359 13.359 0 0 1 7.436-2.529h.02a11.643 11.643 0 0 1 4.072.267l-.08-.017c1.01.292 1.556.73 1.638 1.312.124.548-.165.995-.867 1.342a6.857 6.857 0 0 1-2.58.654h-.019a4.668 4.668 0 0 1-3.061-.387l.026.012a2.15 2.15 0 0 1-1.108-1.298l-.004-.014c-1.032.083-1.682.312-1.949.687a1.51 1.51 0 0 0-.338 1.067V6.46c.123.583.784 1.104 1.981 1.562 1 .317 2.147.5 3.336.5.59 0 1.173-.046 1.739-.131l-.065.008h.067c1.835 0 3.54-.573 4.946-1.548l-.03.02a2.904 2.904 0 0 0 1.08-2.732l.003.017c-.248-1.25-1.29-2.3-3.124-3.152A15.753 15.753 0 0 0 35.798.17l.087-.01c-4.29.411-7.023 1.327-8.2 2.748a8.611 8.611 0 0 1-6.073 2.498h-.089.005a6.29 6.29 0 0 1-2.8-.198l.046.012a1.696 1.696 0 0 1-.743-.4 1.718 1.718 0 0 1-.46-.712l-.005-.013a.997.997 0 0 1 .147-.623.982.982 0 0 1 .495-.402l.006-.002a5.487 5.487 0 0 1 1.74-.466l.023-.003a8.763 8.763 0 0 1 2 .103l-.051-.007a6.24 6.24 0 0 1 1.62.427l-.043-.014c.227-.083.43-.223.586-.409l.003-.002a.54.54 0 0 0 .092-.473v.005c-.123-.459-.577-.782-1.36-.969a9.18 9.18 0 0 0-2.888-.152l.04-.004c-2.146.208-3.395.687-3.746 1.437a3.138 3.138 0 0 0-.404 1.82v-.01a4.07 4.07 0 0 0 .965 1.694 4.036 4.036 0 0 0 1.636 1.046l.029.008a10.15 10.15 0 0 0 3.914.771c.485 0 .962-.033 1.428-.098l-.053.006.012-.006Zm29.025 9.87a52.767 52.767 0 0 1-4.271.875 70.58 70.58 0 0 1-4.827.617 128.56 128.56 0 0 1-5.384.41c-1.897.107-3.857.16-5.879.157-2.104 0-4.105-.052-6.003-.157-1.898-.104-3.703-.25-5.415-.437a93.767 93.767 0 0 1-4.857-.654 71.746 71.746 0 0 1-4.271-.821 29.092 29.092 0 0 1-5.743-2.002l.18.077a6.731 6.731 0 0 1-2.651-2.037l-.01-.015c.237 1.806.55 3.381.957 4.92l-.06-.266a45.167 45.167 0 0 0 1.499 4.787l-.105-.318a11.9 11.9 0 0 0-1.776 1.32l.01-.01a13.833 13.833 0 0 0-1.558 1.658l-.02.027a11.616 11.616 0 0 0-2.011 3.758l-.023.084a12.402 12.402 0 0 0-.557 4.106v-.019A8.478 8.478 0 0 0 1.11 37.49l-.02-.041a10.763 10.763 0 0 0 2.537 2.966l.02.017a8.685 8.685 0 0 0 3.398 1.706l.06.012a9.565 9.565 0 0 0 3.898.021l-.062.01a7.235 7.235 0 0 0 1.686-.485l-.047.019c.557-.23 1.103-.427 1.639-.594h-.066a8.568 8.568 0 0 1-3.117-.583l.06.02a11.22 11.22 0 0 1-2.901-1.701l.02.017a10.733 10.733 0 0 1-2.48-2.646l-.025-.04a8.1 8.1 0 0 1-1.266-3.45l-.004-.04a8.218 8.218 0 0 1 .01-3.52l-.01.054a9.44 9.44 0 0 1 1.381-3.185l-.02.031c.164-.166.32-.332.464-.497.144-.166.3-.332.464-.498.372.958.774 1.895 1.206 2.81.432.915.9 1.81 1.404 2.687.99 1.54 2 3.029 3.032 4.465a799.346 799.346 0 0 1 3.093 4.333c.388.72.774 1.585 1.1 2.48l.045.142c.262.703.508 1.56.692 2.442l.02.119c.696.95 1.514 1.758 2.443 2.418l.033.023c.925.65 1.992 1.181 3.135 1.54l.083.023c1.265.456 2.766.837 4.314 1.075l.139.016a30.26 30.26 0 0 0 4.616.344h.334a31.147 31.147 0 0 0 4.944-.4l-.18.023a27.91 27.91 0 0 0 4.842-1.183l-.199.058a12.06 12.06 0 0 0 3.103-1.556l-.041.027a9.943 9.943 0 0 0 2.42-2.431l.02-.031h.186c.165-.75.38-1.583.648-2.498a14.842 14.842 0 0 1 1.12-2.765l-.038.08c.989-1.457 2-2.894 3.032-4.31a105.605 105.605 0 0 0 3.094-4.496 45.807 45.807 0 0 0 3.337-7.658l.096-.336a59.141 59.141 0 0 0 2.14-8.418L61 13.72a7.825 7.825 0 0 1-2.737 2.135l-.048.02a21.6 21.6 0 0 1-5.297 1.753l-.14.023.004-.007Zm-40.905-4.312c1.32.332 2.745.624 4.27.875 1.527.252 3.136.457 4.827.617 1.692.166 3.476.291 5.353.375 1.877.083 3.843.125 5.898.125 2.104 0 4.095-.042 5.972-.125a99.736 99.736 0 0 0 5.353-.375 61.479 61.479 0 0 0 4.796-.654 127.18 127.18 0 0 0 4.3-.844 24.117 24.117 0 0 0 6.41-2.375l-.129.065C60.31 10.183 61 9.35 61 8.517a2.455 2.455 0 0 0-.892-1.777l-.004-.004a8.418 8.418 0 0 0-2.51-1.51l-.058-.02c.248.173.452.392.605.646l.006.009c.16.251.246.544.248.843 0 .875-.64 1.666-1.918 2.373-1.66.838-3.586 1.506-5.607 1.91l-.146.025c-2.394.5-5.116.928-8.169 1.282-2.91.34-6.284.533-9.702.533l-.469-.002h.025-.337c-3.422 0-6.804-.181-10.134-.535l.415.035a78.57 78.57 0 0 1-8.654-1.34l.517.092a24.423 24.423 0 0 1-5.774-2.064l.14.064C7.303 8.37 6.664 7.6 6.664 6.767v-.002c0-.39.103-.754.285-1.069l-.006.01a3.178 3.178 0 0 1 1.003-.991l.015-.008a18.14 18.14 0 0 0-3.63 1.822l.073-.043a2.446 2.446 0 0 0-1.206 2.027v.004c.083.875.836 1.728 2.259 2.56a23.388 23.388 0 0 0 6.257 2.231l.154.027.009-.004Z" fill="#483431"/></svg>