<svg width="32" height="33" fill="none" xmlns="http://www.w3.org/2000/svg"><path d="M20.723 3.58a12.269 12.269 0 0 1 1.59 15.294c.265.222.486.466.795.688.442.355 1.038.8 1.789 1.31.75.532 1.236.866 1.457 1.043.928.688 1.612 1.265 2.076 1.732a15.68 15.68 0 0 1 1.855 2.22c.552.776.971 1.53 1.302 2.308.31.777.464 1.51.398 2.22-.044.71-.31 1.31-.795 1.798a2.675 2.675 0 0 1-1.789.799c-.684.044-1.435-.09-2.186-.422a10.481 10.481 0 0 1-2.296-1.31 15.642 15.642 0 0 1-2.208-1.864c-.464-.466-1.038-1.155-1.7-2.065-.221-.288-.553-.777-1.038-1.465a43.906 43.906 0 0 0-1.237-1.731c-.353-.444-.64-.777-.971-1.11A12.096 12.096 0 0 1 10.3 24.28a12.13 12.13 0 0 1-6.756-3.43c-4.725-4.773-4.725-12.52 0-17.27A12.136 12.136 0 0 1 7.484.93a12.085 12.085 0 0 1 9.299 0 12.137 12.137 0 0 1 3.94 2.65ZM17.61 17.698a7.82 7.82 0 0 0 2.252-5.495A7.82 7.82 0 0 0 17.61 6.71a7.683 7.683 0 0 0-10.93 0 7.794 7.794 0 0 0 0 10.988 7.683 7.683 0 0 0 10.93 0Z" fill="#000" fill-opacity=".3"/></svg>