<svg width="37" height="23" viewBox="0 0 37 23" fill="none" xmlns="http://www.w3.org/2000/svg">
<path d="M25.0644 1.25877L25.1055 1.2162L25.0644 1.25877ZM25.0644 1.25877L25.0573 1.26576L25.0446 1.27921M25.0644 1.25877L25.0578 1.26555L25.0446 1.27921M25.0446 1.27921L25.0392 1.28487M25.0446 1.27921L25.0392 1.28487M25.0392 1.28487L24.1708 2.18295L25.0392 1.28487ZM34.293 8.35347L32.4866 6.60679L36.6118 12.4045C36.7349 12.2859 36.8325 12.1449 36.8991 11.9897C36.9657 11.8344 37 11.668 37 11.5C37 11.332 36.9657 11.1656 36.8991 11.0103C36.8325 10.8551 36.7349 10.7141 36.6118 10.5955L36.1931 10.1906L34.293 8.35347Z" fill="black" stroke="black" stroke-width="51"/>
</svg>
