<svg width="61" height="50" viewBox="0 0 61 50" fill="none" xmlns="http://www.w3.org/2000/svg">
<path d="M23.7571 7.77311C26.2204 7.70206 28.5999 6.85406 30.5612 5.34824L30.5322 5.36907C32.7063 3.79835 35.2953 2.9178 37.968 2.84004H37.9887C39.3507 2.68863 40.7284 2.77888 42.0596 3.10669L41.9791 3.09003C42.9892 3.38168 43.5356 3.81915 43.6182 4.40246C43.742 4.94965 43.453 5.39685 42.7511 5.74405C41.9411 6.12879 41.0647 6.35095 40.1707 6.39818H40.1521C39.1175 6.61982 38.039 6.48332 37.0907 6.0107L37.1175 6.0232C36.8551 5.8942 36.6214 5.71259 36.4309 5.48945C36.2403 5.26631 36.0967 5.00633 36.009 4.72536L36.0048 4.71077C34.9727 4.7941 34.3231 5.02326 34.0561 5.39824C33.811 5.69632 33.6897 6.07853 33.7175 6.46485V6.46068C33.8414 7.04398 34.502 7.56479 35.6993 8.0231C36.6985 8.33974 37.8462 8.52307 39.0353 8.52307C39.6257 8.52307 40.2079 8.47724 40.7735 8.39182L40.7095 8.40016H40.7756C42.6108 8.40016 44.3159 7.82727 45.7217 6.85232L45.6928 6.87107C46.0977 6.55429 46.4113 6.13405 46.6011 5.65386C46.791 5.17367 46.8501 4.65099 46.7725 4.13997L46.7746 4.15664C46.5268 2.9067 45.4857 1.85607 43.6512 1.00472C41.1448 0.0644964 38.4438 -0.222118 35.7984 0.171434L35.8851 0.161018C31.5954 0.572107 28.8622 1.48803 27.6855 2.90879C26.0644 4.51344 23.883 5.41056 21.6122 5.40657H21.5234H21.5276C20.5915 5.55223 19.6351 5.4846 18.7283 5.20866L18.7737 5.22116C18.4968 5.15241 18.2414 5.0145 18.0311 4.82011C17.8208 4.62572 17.6623 4.38109 17.5702 4.10872L17.5661 4.09622C17.5453 3.87772 17.5971 3.65844 17.7133 3.47289C17.8295 3.28734 18.0036 3.14606 18.2081 3.07128L18.2143 3.06919C18.7283 2.83171 19.327 2.66505 19.9545 2.60255L19.9772 2.60047C20.6457 2.55793 21.3168 2.59217 21.9776 2.70255L21.926 2.6963C22.5123 2.77129 23.0469 2.91504 23.5465 3.12336L23.5031 3.10878C23.7303 3.02623 23.9323 2.88553 24.0894 2.70046L24.0915 2.69838C24.1425 2.63238 24.1775 2.55521 24.1937 2.47308C24.2098 2.39096 24.2066 2.30615 24.1844 2.22549V2.22966C24.0605 1.77135 23.607 1.44845 22.824 1.26096C21.8751 1.05796 20.9006 1.00664 19.9359 1.10888L19.9752 1.10472C17.8296 1.31304 16.5814 1.79218 16.2304 2.54214C15.9143 3.09306 15.7731 3.7285 15.8258 4.36287V4.35246C16.0069 4.98765 16.3382 5.56889 16.7913 6.04612C17.2445 6.52335 17.8058 6.88225 18.4269 7.0919L18.4558 7.10023C19.6139 7.5877 20.9578 7.87102 22.3698 7.87102C22.8549 7.87102 23.3318 7.83769 23.7983 7.77311L23.7447 7.77936L23.7571 7.77311ZM52.7818 17.6434C51.4606 17.9753 50.0369 18.267 48.5107 18.5184C46.9844 18.7697 45.3756 18.9753 43.6842 19.135C41.9928 19.3017 40.1982 19.4385 38.3004 19.5454C36.4026 19.6523 34.4428 19.7044 32.4211 19.7016C30.3169 19.7016 28.3158 19.6496 26.418 19.5454C24.5202 19.4412 22.7152 19.2954 21.0032 19.1079C19.2912 18.9204 17.672 18.7024 16.1458 18.4538C14.6196 18.2052 13.1958 17.9316 11.8747 17.633C9.89668 17.1685 7.97198 16.4976 6.13163 15.631L6.31123 15.7081C5.27229 15.2641 4.36076 14.5635 3.66061 13.6707L3.65028 13.6561C3.88768 15.4623 4.20147 17.0372 4.60814 18.5767L4.54828 18.31C5.02308 20.1537 5.49994 21.6432 6.04699 23.0973L5.94171 22.7786C5.31067 23.1624 4.71634 23.6045 4.16637 24.0993L4.17669 24.0889C3.61287 24.5975 3.09158 25.1521 2.61811 25.7471L2.59747 25.7742C1.70219 26.8903 1.02038 28.1647 0.586788 29.5324L0.564081 29.6157C0.149437 30.9427 -0.03903 32.3311 0.00670614 33.7217V33.703C0.0789584 35.0904 0.471185 36.3716 1.11113 37.4903L1.09049 37.4486C1.74966 38.5854 2.60953 39.5908 3.62758 40.4151L3.64822 40.4318C4.64291 41.2455 5.80306 41.828 7.04614 42.1379L7.10601 42.1504C8.39025 42.4248 9.71645 42.4319 11.0035 42.1713L10.9416 42.1817C11.5567 42.0817 12.1079 41.9171 12.6281 41.6963L12.5807 41.715C13.138 41.4859 13.6844 41.288 14.2198 41.1213H14.1537C13.0879 41.1226 12.031 40.9249 11.0365 40.538L11.0964 40.5588C10.0507 40.1411 9.073 39.5674 8.19598 38.8569L8.21663 38.8735C7.2467 38.1401 6.4076 37.2455 5.73528 36.2278L5.71051 36.1882C5.03068 35.1522 4.59757 33.9715 4.44506 32.7384L4.44093 32.6988C4.19 31.5386 4.19353 30.337 4.45125 29.1782L4.44093 29.2324C4.7009 28.0932 5.16927 27.0129 5.82198 26.0471L5.80134 26.0784C5.96649 25.9117 6.12131 25.7458 6.26582 25.5805C6.41032 25.4152 6.56515 25.2493 6.73029 25.0826C7.10188 26.0409 7.50374 26.9776 7.93587 27.8929C8.36801 28.8081 8.83593 29.7039 9.33963 30.5802C10.3291 32.1204 11.34 33.6085 12.3722 35.0446C13.4043 36.4806 14.4351 37.925 15.4646 39.3777C15.8527 40.0985 16.2387 40.963 16.5649 41.8588L16.6103 42.0004C16.8724 42.7025 17.1181 43.5608 17.3018 44.442L17.3225 44.5607C18.0182 45.5107 18.8356 46.319 19.7646 46.9793L19.7976 47.0023C20.7225 47.6522 21.7897 48.1834 22.9334 48.5418L23.016 48.5647C24.2814 49.0209 25.7822 49.4021 27.3304 49.6396L27.4688 49.6563C28.856 49.875 30.4559 50 32.0846 50H32.4191C34.075 49.9983 35.7282 49.8646 37.3632 49.6L37.1836 49.6229C38.8287 49.3738 40.4487 48.9778 42.0245 48.4397L41.8263 48.498C42.9291 48.1321 43.9741 47.608 44.929 46.9418L44.8877 46.9689C45.8277 46.3061 46.6463 45.4835 47.3072 44.5378L47.3278 44.5065H47.5136C47.6787 43.7566 47.8948 42.924 48.1618 42.0088C48.4694 40.9755 48.8368 40.086 49.2827 39.2443L49.2435 39.3235C50.233 37.8666 51.2439 36.4299 52.2761 35.0133C53.3082 33.5967 54.3397 32.0982 55.3705 30.5177C56.7127 28.0736 57.8294 25.5102 58.7065 22.8598L58.8035 22.5244C59.7215 19.7755 60.4364 16.9617 60.9422 14.1061L61 13.7186C60.2571 14.6278 59.3217 15.3575 58.2627 15.8539L58.2152 15.8748C56.5313 16.6857 54.751 17.2746 52.9181 17.6267L52.7777 17.6497L52.7818 17.6434ZM11.8767 13.3311C13.1979 13.6631 14.6216 13.9547 16.1479 14.2061C17.6741 14.4575 19.2829 14.663 20.9743 14.8227C22.6657 14.9894 24.45 15.1144 26.3272 15.1977C28.2044 15.281 30.1703 15.3227 32.225 15.3227C34.3293 15.3227 36.32 15.281 38.1972 15.1977C40.0744 15.1144 41.8587 14.9894 43.55 14.8227C45.2414 14.6561 46.8399 14.438 48.3455 14.1686C49.8511 13.8992 51.2845 13.6179 52.6456 13.3249C54.8825 12.8422 57.0404 12.0427 59.0554 10.95L58.9274 11.0146C60.3091 10.1827 61 9.35011 61 8.51682C60.9837 8.17395 60.8959 7.83842 60.7422 7.5322C60.5885 7.22597 60.3725 6.95595 60.1082 6.73983L60.1041 6.73566C59.3608 6.08862 58.5113 5.5775 57.5938 5.22533L57.536 5.20658C57.7837 5.37949 57.9881 5.59823 58.1409 5.85238L58.1471 5.86071C58.3074 6.11248 58.3933 6.40514 58.3948 6.70442C58.3948 7.57937 57.7555 8.3703 56.477 9.0772C54.8173 9.91466 52.8912 10.5834 50.8702 10.9875L50.7237 11.0125C48.3304 11.5125 45.6075 11.9395 42.555 12.2937C39.6443 12.6333 36.2711 12.827 32.8526 12.827L32.384 12.8249H32.4087H32.0723C28.6496 12.8249 25.2682 12.6437 21.9384 12.2895L22.3533 12.3249C19.4465 12.0397 16.5575 11.5925 13.6995 10.9854L14.2156 11.0771C12.2132 10.6347 10.2734 9.94117 8.44164 9.01262L8.58202 9.0772C7.3035 8.3703 6.66424 7.6002 6.66424 6.76691V6.76483C6.66424 6.37527 6.76745 6.0107 6.94912 5.69614L6.94292 5.70655C7.2051 5.29824 7.54571 4.96284 7.9462 4.71494L7.96065 4.70661C6.68746 5.17596 5.4702 5.78736 4.33152 6.52943L4.40377 6.48568C3.69983 6.90232 3.22709 7.6502 3.19819 8.51265V8.51682C3.28077 9.39177 4.03357 10.2452 5.45659 11.0771C7.30831 12.0645 9.45317 12.8458 11.7136 13.3082L11.8685 13.3353L11.8767 13.3311Z" fill="#483431"/>
</svg>
