<svg width="32" height="33" viewBox="0 0 32 33" fill="none" xmlns="http://www.w3.org/2000/svg">
<path d="M20.7234 3.57973C22.6911 5.56021 23.9227 8.15988 24.2121 10.9439C24.5015 13.7278 23.8311 16.5273 22.3132 18.874C22.5782 19.0959 22.799 19.3401 23.1082 19.5621C23.5498 19.9173 24.146 20.3612 24.8967 20.8718C25.6475 21.4045 26.1333 21.7375 26.3541 21.9151C27.2815 22.6032 27.9661 23.1803 28.4298 23.6465C29.1364 24.3568 29.7546 25.0893 30.2846 25.8662C30.8366 26.6432 31.2562 27.3979 31.5874 28.1748C31.8965 28.9517 32.0511 29.6843 31.9849 30.3946C31.9407 31.1049 31.6757 31.7042 31.1899 32.1926C30.7041 32.681 30.1079 32.9473 29.4013 32.9917C28.7168 33.0361 27.9661 32.9029 27.2153 32.57C26.4424 32.2592 25.6696 31.8152 24.9188 31.2603C24.146 30.7275 23.4173 30.106 22.7107 29.3957C22.247 28.9295 21.6729 28.2414 21.0104 27.3313C20.7896 27.0427 20.4584 26.5544 19.9726 25.8662C19.4868 25.1559 19.0893 24.601 18.736 24.1348C18.3827 23.6909 18.0957 23.3579 17.7645 23.0249C15.4725 24.2314 12.8574 24.6709 10.2997 24.2797C7.74198 23.8884 5.37528 22.6867 3.54406 20.8496C-1.18135 16.077 -1.18135 8.33004 3.54406 3.57973C4.67158 2.4449 6.01057 1.54464 7.48445 0.930397C8.95833 0.316159 10.5382 0 12.1337 0C13.7292 0 15.3091 0.316159 16.783 0.930397C18.2569 1.54464 19.5958 2.4449 20.7234 3.57973ZM17.6099 17.6975C19.0524 16.2367 19.862 14.2619 19.862 12.2035C19.862 10.1452 19.0524 8.17036 17.6099 6.70961C16.893 5.98676 16.0412 5.41325 15.1034 5.02192C14.1656 4.6306 13.1601 4.42917 12.1448 4.42917C11.1294 4.42917 10.1239 4.6306 9.18613 5.02192C8.24832 5.41325 7.39654 5.98676 6.67961 6.70961C5.96056 7.43031 5.39005 8.28658 5.00078 9.22933C4.61151 10.1721 4.41113 11.1828 4.41113 12.2035C4.41113 13.2243 4.61151 14.235 5.00078 15.1778C5.39005 16.1205 5.96056 16.9768 6.67961 17.6975C7.39654 18.4203 8.24832 18.9938 9.18613 19.3852C10.1239 19.7765 11.1294 19.9779 12.1448 19.9779C13.1601 19.9779 14.1656 19.7765 15.1034 19.3852C16.0412 18.9938 16.893 18.4203 17.6099 17.6975Z" fill="black" fill-opacity="0.3"/>
</svg>
