<svg width="31" height="6" viewBox="0 0 31 6" fill="none" xmlns="http://www.w3.org/2000/svg">
<path d="M28 6C27.2044 6 26.4413 5.68393 25.8787 5.12132C25.3161 4.55871 25 3.79565 25 3C25 2.20435 25.3161 1.44129 25.8787 0.878679C26.4413 0.31607 27.2044 0 28 0C28.7956 0 29.5587 0.31607 30.1213 0.878679C30.6839 1.44129 31 2.20435 31 3C31 3.79565 30.6839 4.55871 30.1213 5.12132C29.5587 5.68393 28.7956 6 28 6Z" fill="#CD4126" fill-opacity="0.5"/>
<path d="M16 6C15.2044 6 14.4413 5.68393 13.8787 5.12132C13.3161 4.55871 13 3.79565 13 3C13 2.20435 13.3161 1.44129 13.8787 0.878679C14.4413 0.31607 15.2044 0 16 0C16.7956 0 17.5587 0.31607 18.1213 0.878679C18.6839 1.44129 19 2.20435 19 3C19 3.79565 18.6839 4.55871 18.1213 5.12132C17.5587 5.68393 16.7956 6 16 6Z" fill="#CD4126" fill-opacity="0.5"/>
<path d="M3 6C2.20435 6 1.44129 5.68393 0.878679 5.12132C0.31607 4.55871 0 3.79565 0 3C0 2.20435 0.31607 1.44129 0.878679 0.878679C1.44129 0.31607 2.20435 0 3 0C3.79565 0 4.55871 0.31607 5.12132 0.878679C5.68393 1.44129 6 2.20435 6 3C6 3.79565 5.68393 4.55871 5.12132 5.12132C4.55871 5.68393 3.79565 6 3 6Z" fill="#CD4126" fill-opacity="0.5"/>
</svg>
